# cube.obj
#

o cube
# mtllib cube.mtl

v -0.500000 -5.000000 0.500000
v 0.500000 -5.000000 0.500000
v -0.500000 -5.000000 -0.500000
v 0.500000 -5.000000 -0.500000
v -0.500000 -4.000000 0.500000
v 0.500000 -4.000000 0.500000
v -0.500000 -4.000000 -0.500000
v 0.500000 -4.000000 -0.500000
v -0.500000 -3.000000 0.500000
v 0.500000 -3.000000 0.500000
v -0.500000 -3.000000 -0.500000
v 0.500000 -3.000000 -0.500000
v -0.500000 -2.000000 0.500000
v 0.500000 -2.000000 0.500000
v -0.500000 -2.000000 -0.500000
v 0.500000 -2.000000 -0.500000
v -0.500000 -1.000000 0.500000
v 0.500000 -1.000000 0.500000
v -0.500000 -1.000000 -0.500000
v 0.500000 -1.000000 -0.500000
v -0.500000 0.000000 0.500000
v 0.500000 0.000000 0.500000
v -0.500000 0.000000 -0.500000
v 0.500000 0.000000 -0.500000
v -0.500000 1.000000 0.500000
v 0.500000 1.000000 0.500000
v -0.500000 1.000000 -0.500000
v 0.500000 1.000000 -0.500000
v -0.500000 2.000000 0.500000
v 0.500000 2.000000 0.500000
v -0.500000 2.000000 -0.500000
v 0.500000 2.000000 -0.500000
v -0.500000 3.000000 0.500000
v 0.500000 3.000000 0.500000
v -0.500000 3.000000 -0.500000
v 0.500000 3.000000 -0.500000
v -0.500000 4.000000 0.500000
v 0.500000 4.000000 0.500000
v -0.500000 4.000000 -0.500000
v 0.500000 4.000000 -0.500000
v -0.500000 5.000000 0.500000
v 0.500000 5.000000 0.500000
v -0.500000 5.000000 -0.500000
v 0.500000 5.000000 -0.500000

vt 0.000000 0.000000
vt 1.000000 0.000000
vt 0.000000 1.000000
vt 1.000000 1.000000

vn 0.000000 0.000000 1.000000
vn 0.000000 1.000000 0.000000
vn 0.000000 0.000000 -1.000000
vn 0.000000 -1.000000 0.000000
vn 1.000000 0.000000 0.000000
vn -1.000000 0.000000 0.000000

g cube
# usemtl cube
# +z
s 1
f 1/1/1 2/2/1 5/3/1
f 5/3/1 2/2/1 6/4/1
s 1.1
f 5/1/1 6/2/1 9/3/1
f 9/3/1 6/2/1 10/4/1

# +y
s 2
f 9/1/2 10/2/2 11/3/2
f 11/3/2 10/2/2 12/4/2

# -z
s 3
f 7/4/3 8/3/3 3/2/3
f 3/2/3 8/3/3 4/1/3
s 3.1
f 11/4/3 12/3/3 7/2/3
f 7/2/3 12/3/3 8/1/3

# -y
s 4
f 3/1/4 4/2/4 1/3/4
f 1/3/4 4/2/4 2/4/4

# +x
s 5
f 2/1/5 4/2/5 6/3/5
f 6/3/5 4/2/5 8/4/5
s 5.1
f 6/1/5 8/2/5 10/3/5
f 10/3/5 8/2/5 12/4/5

# -x
s 6
f 3/1/6 1/2/6 7/3/6
f 7/3/6 1/2/6 5/4/6
s 6.1
f 7/1/6 5/2/6 11/3/6
f 11/3/6 5/2/6 9/4/6
