o Tube
v 0 5 0.5
v 0.25 5 0.4330126941204071
v 0.4330126941204071 5 0.25
v 0.5 5 3.0616171314629196e-17
v 0.4330126941204071 5 -0.25
v 0.25 5 -0.4330126941204071
v 6.123234262925839e-17 5 -0.5
v -0.25 5 -0.4330126941204071
v -0.4330126941204071 5 -0.25
v -0.5 5 -9.184850732644269e-17
v -0.4330126941204071 5 0.25
v -0.25 5 0.4330126941204071
v -1.2246468525851679e-16 5 0.5
v 0 4.000073432922363 0.5
v 0.25 4.000073432922363 0.4330126941204071
v 0.4330126941204071 4.000073432922363 0.25
v 0.5 4.000073432922363 3.0616171314629196e-17
v 0.4330126941204071 4.000073432922363 -0.25
v 0.25 4.000073432922363 -0.4330126941204071
v 6.123234262925839e-17 4.000073432922363 -0.5
v -0.25 4.000073432922363 -0.4330126941204071
v -0.4330126941204071 4.000073432922363 -0.25
v -0.5 4.000073432922363 -9.184850732644269e-17
v -0.4330126941204071 4.000073432922363 0.25
v -0.25 4.000073432922363 0.4330126941204071
v -1.2246468525851679e-16 4.000073432922363 0.5
v 0 3.0000579357147217 0.5
v 0.25 3.0000579357147217 0.4330126941204071
v 0.4330126941204071 3.0000579357147217 0.25
v 0.5 3.0000579357147217 3.0616171314629196e-17
v 0.4330126941204071 3.0000579357147217 -0.25
v 0.25 3.0000579357147217 -0.4330126941204071
v 6.123234262925839e-17 3.0000579357147217 -0.5
v -0.25 3.0000579357147217 -0.4330126941204071
v -0.4330126941204071 3.0000579357147217 -0.25
v -0.5 3.0000579357147217 -9.184850732644269e-17
v -0.4330126941204071 3.0000579357147217 0.25
v -0.25 3.0000579357147217 0.4330126941204071
v -1.2246468525851679e-16 3.0000579357147217 0.5
v 0 2.0000386238098145 0.5
v 0.25 2.0000386238098145 0.4330126941204071
v 0.4330126941204071 2.0000386238098145 0.25
v 0.5 2.0000386238098145 3.0616171314629196e-17
v 0.4330126941204071 2.0000386238098145 -0.25
v 0.25 2.0000386238098145 -0.4330126941204071
v 6.123234262925839e-17 2.0000386238098145 -0.5
v -0.25 2.0000386238098145 -0.4330126941204071
v -0.4330126941204071 2.0000386238098145 -0.25
v -0.5 2.0000386238098145 -9.184850732644269e-17
v -0.4330126941204071 2.0000386238098145 0.25
v -0.25 2.0000386238098145 0.4330126941204071
v -1.2246468525851679e-16 2.0000386238098145 0.5
v 0 1.0000032186508179 0.5
v 0.25 1.0000032186508179 0.4330126941204071
v 0.4330126941204071 1.0000032186508179 0.25
v 0.5 1.0000032186508179 3.0616171314629196e-17
v 0.4330126941204071 1.0000032186508179 -0.25
v 0.25 1.0000032186508179 -0.4330126941204071
v 6.123234262925839e-17 1.0000032186508179 -0.5
v -0.25 1.0000032186508179 -0.4330126941204071
v -0.4330126941204071 1.0000032186508179 -0.25
v -0.5 1.0000032186508179 -9.184850732644269e-17
v -0.4330126941204071 1.0000032186508179 0.25
v -0.25 1.0000032186508179 0.4330126941204071
v -1.2246468525851679e-16 1.0000032186508179 0.5
v 0 0.00001241180143551901 0.5
v 0.25 0.00001241180143551901 0.4330126941204071
v 0.4330126941204071 0.00001241180143551901 0.25
v 0.5 0.00001241180143551901 3.0616171314629196e-17
v 0.4330126941204071 0.00001241180143551901 -0.25
v 0.25 0.00001241180143551901 -0.4330126941204071
v 6.123234262925839e-17 0.00001241180143551901 -0.5
v -0.25 0.00001241180143551901 -0.4330126941204071
v -0.4330126941204071 0.00001241180143551901 -0.25
v -0.5 0.00001241180143551901 -9.184850732644269e-17
v -0.4330126941204071 0.00001241180143551901 0.25
v -0.25 0.00001241180143551901 0.4330126941204071
v -1.2246468525851679e-16 0.00001241180143551901 0.5
v 0 -1.000001072883606 0.5
v 0.25 -1.000001072883606 0.4330126941204071
v 0.4330126941204071 -1.000001072883606 0.25
v 0.5 -1.000001072883606 3.0616171314629196e-17
v 0.4330126941204071 -1.000001072883606 -0.25
v 0.25 -1.000001072883606 -0.4330126941204071
v 6.123234262925839e-17 -1.000001072883606 -0.5
v -0.25 -1.000001072883606 -0.4330126941204071
v -0.4330126941204071 -1.000001072883606 -0.25
v -0.5 -1.000001072883606 -9.184850732644269e-17
v -0.4330126941204071 -1.000001072883606 0.25
v -0.25 -1.000001072883606 0.4330126941204071
v -1.2246468525851679e-16 -1.000001072883606 0.5
v 0 -2.0000150203704834 0.5
v 0.25 -2.0000150203704834 0.4330126941204071
v 0.4330126941204071 -2.0000150203704834 0.25
v 0.5 -2.0000150203704834 3.0616171314629196e-17
v 0.4330126941204071 -2.0000150203704834 -0.25
v 0.25 -2.0000150203704834 -0.4330126941204071
v 6.123234262925839e-17 -2.0000150203704834 -0.5
v -0.25 -2.0000150203704834 -0.4330126941204071
v -0.4330126941204071 -2.0000150203704834 -0.25
v -0.5 -2.0000150203704834 -9.184850732644269e-17
v -0.4330126941204071 -2.0000150203704834 0.25
v -0.25 -2.0000150203704834 0.4330126941204071
v -1.2246468525851679e-16 -2.0000150203704834 0.5
v 0 -3.000004768371582 0.5
v 0.25 -3.000004768371582 0.4330126941204071
v 0.4330126941204071 -3.000004768371582 0.25
v 0.5 -3.000004768371582 3.0616171314629196e-17
v 0.4330126941204071 -3.000004768371582 -0.25
v 0.25 -3.000004768371582 -0.4330126941204071
v 6.123234262925839e-17 -3.000004768371582 -0.5
v -0.25 -3.000004768371582 -0.4330126941204071
v -0.4330126941204071 -3.000004768371582 -0.25
v -0.5 -3.000004768371582 -9.184850732644269e-17
v -0.4330126941204071 -3.000004768371582 0.25
v -0.25 -3.000004768371582 0.4330126941204071
v -1.2246468525851679e-16 -3.000004768371582 0.5
v 0 -4.000044822692871 0.5
v 0.25 -4.000044822692871 0.4330126941204071
v 0.4330126941204071 -4.000044822692871 0.25
v 0.5 -4.000044822692871 3.0616171314629196e-17
v 0.4330126941204071 -4.000044822692871 -0.25
v 0.25 -4.000044822692871 -0.4330126941204071
v 6.123234262925839e-17 -4.000044822692871 -0.5
v -0.25 -4.000044822692871 -0.4330126941204071
v -0.4330126941204071 -4.000044822692871 -0.25
v -0.5 -4.000044822692871 -9.184850732644269e-17
v -0.4330126941204071 -4.000044822692871 0.25
v -0.25 -4.000044822692871 0.4330126941204071
v -1.2246468525851679e-16 -4.000044822692871 0.5
v 0 -5 0.5
v 0.25 -5 0.4330126941204071
v 0.4330126941204071 -5 0.25
v 0.5 -5 3.0616171314629196e-17
v 0.4330126941204071 -5 -0.25
v 0.25 -5 -0.4330126941204071
v 6.123234262925839e-17 -5 -0.5
v -0.25 -5 -0.4330126941204071
v -0.4330126941204071 -5 -0.25
v -0.5 -5 -9.184850732644269e-17
v -0.4330126941204071 -5 0.25
v -0.25 -5 0.4330126941204071
v -1.2246468525851679e-16 -5 0.5
vt 0 0
vt 0 0.0833333358168602
vt 0 0.1666666716337204
vt 0 0.25
vt 0 0.3333333432674408
vt 0 0.4166666567325592
vt 0 0.5
vt 0 0.5833333134651184
vt 0 0.6666666865348816
vt 0 0.75
vt 0 0.8333333134651184
vt 0 0.9166666865348816
vt 0 1
vt 0.10000000149011612 0
vt 0.10000000149011612 0.0833333358168602
vt 0.10000000149011612 0.1666666716337204
vt 0.10000000149011612 0.25
vt 0.10000000149011612 0.3333333432674408
vt 0.10000000149011612 0.4166666567325592
vt 0.10000000149011612 0.5
vt 0.10000000149011612 0.5833333134651184
vt 0.10000000149011612 0.6666666865348816
vt 0.10000000149011612 0.75
vt 0.10000000149011612 0.8333333134651184
vt 0.10000000149011612 0.9166666865348816
vt 0.10000000149011612 1
vt 0.20000000298023224 0
vt 0.20000000298023224 0.0833333358168602
vt 0.20000000298023224 0.1666666716337204
vt 0.20000000298023224 0.25
vt 0.20000000298023224 0.3333333432674408
vt 0.20000000298023224 0.4166666567325592
vt 0.20000000298023224 0.5
vt 0.20000000298023224 0.5833333134651184
vt 0.20000000298023224 0.6666666865348816
vt 0.20000000298023224 0.75
vt 0.20000000298023224 0.8333333134651184
vt 0.20000000298023224 0.9166666865348816
vt 0.20000000298023224 1
vt 0.30000001192092896 0
vt 0.30000001192092896 0.0833333358168602
vt 0.30000001192092896 0.1666666716337204
vt 0.30000001192092896 0.25
vt 0.30000001192092896 0.3333333432674408
vt 0.30000001192092896 0.4166666567325592
vt 0.30000001192092896 0.5
vt 0.30000001192092896 0.5833333134651184
vt 0.30000001192092896 0.6666666865348816
vt 0.30000001192092896 0.75
vt 0.30000001192092896 0.8333333134651184
vt 0.30000001192092896 0.9166666865348816
vt 0.30000001192092896 1
vt 0.4000000059604645 0
vt 0.4000000059604645 0.0833333358168602
vt 0.4000000059604645 0.1666666716337204
vt 0.4000000059604645 0.25
vt 0.4000000059604645 0.3333333432674408
vt 0.4000000059604645 0.4166666567325592
vt 0.4000000059604645 0.5
vt 0.4000000059604645 0.5833333134651184
vt 0.4000000059604645 0.6666666865348816
vt 0.4000000059604645 0.75
vt 0.4000000059604645 0.8333333134651184
vt 0.4000000059604645 0.9166666865348816
vt 0.4000000059604645 1
vt 0.5 0
vt 0.5 0.0833333358168602
vt 0.5 0.1666666716337204
vt 0.5 0.25
vt 0.5 0.3333333432674408
vt 0.5 0.4166666567325592
vt 0.5 0.5
vt 0.5 0.5833333134651184
vt 0.5 0.6666666865348816
vt 0.5 0.75
vt 0.5 0.8333333134651184
vt 0.5 0.9166666865348816
vt 0.5 1
vt 0.6000000238418579 0
vt 0.6000000238418579 0.0833333358168602
vt 0.6000000238418579 0.1666666716337204
vt 0.6000000238418579 0.25
vt 0.6000000238418579 0.3333333432674408
vt 0.6000000238418579 0.4166666567325592
vt 0.6000000238418579 0.5
vt 0.6000000238418579 0.5833333134651184
vt 0.6000000238418579 0.6666666865348816
vt 0.6000000238418579 0.75
vt 0.6000000238418579 0.8333333134651184
vt 0.6000000238418579 0.9166666865348816
vt 0.6000000238418579 1
vt 0.699999988079071 0
vt 0.699999988079071 0.0833333358168602
vt 0.699999988079071 0.1666666716337204
vt 0.699999988079071 0.25
vt 0.699999988079071 0.3333333432674408
vt 0.699999988079071 0.4166666567325592
vt 0.699999988079071 0.5
vt 0.699999988079071 0.5833333134651184
vt 0.699999988079071 0.6666666865348816
vt 0.699999988079071 0.75
vt 0.699999988079071 0.8333333134651184
vt 0.699999988079071 0.9166666865348816
vt 0.699999988079071 1
vt 0.800000011920929 0
vt 0.800000011920929 0.0833333358168602
vt 0.800000011920929 0.1666666716337204
vt 0.800000011920929 0.25
vt 0.800000011920929 0.3333333432674408
vt 0.800000011920929 0.4166666567325592
vt 0.800000011920929 0.5
vt 0.800000011920929 0.5833333134651184
vt 0.800000011920929 0.6666666865348816
vt 0.800000011920929 0.75
vt 0.800000011920929 0.8333333134651184
vt 0.800000011920929 0.9166666865348816
vt 0.800000011920929 1
vt 0.8999999761581421 0
vt 0.8999999761581421 0.0833333358168602
vt 0.8999999761581421 0.1666666716337204
vt 0.8999999761581421 0.25
vt 0.8999999761581421 0.3333333432674408
vt 0.8999999761581421 0.4166666567325592
vt 0.8999999761581421 0.5
vt 0.8999999761581421 0.5833333134651184
vt 0.8999999761581421 0.6666666865348816
vt 0.8999999761581421 0.75
vt 0.8999999761581421 0.8333333134651184
vt 0.8999999761581421 0.9166666865348816
vt 0.8999999761581421 1
vt 1 0
vt 1 0.0833333358168602
vt 1 0.1666666716337204
vt 1 0.25
vt 1 0.3333333432674408
vt 1 0.4166666567325592
vt 1 0.5
vt 1 0.5833333134651184
vt 1 0.6666666865348816
vt 1 0.75
vt 1 0.8333333134651184
vt 1 0.9166666865348816
vt 1 1
vn 0 0 1
vn 0.5000000067305869 0 0.8660253998985324
vn 0.8660253998985324 0 0.5000000067305869
vn 1 0 6.123234262925839e-17
vn 0.8660253998985324 0 -0.5000000067305869
vn 0.5000000067305869 0 -0.8660253998985324
vn 1.2246468525851679e-16 0 -1
vn -0.5000000067305869 0 -0.8660253998985324
vn -0.8660253998985324 0 -0.5000000067305869
vn -1 0 -1.8369701465288538e-16
vn -0.8660253998985324 0 0.5000000067305869
vn -0.5000000067305869 0 0.8660253998985324
vn -2.4492937051703357e-16 0 1
vn 0 0 1
vn 0.5000000067305869 0 0.8660253998985324
vn 0.8660253998985324 0 0.5000000067305869
vn 1 0 6.123234262925839e-17
vn 0.8660253998985324 0 -0.5000000067305869
vn 0.5000000067305869 0 -0.8660253998985324
vn 1.2246468525851679e-16 0 -1
vn -0.5000000067305869 0 -0.8660253998985324
vn -0.8660253998985324 0 -0.5000000067305869
vn -1 0 -1.8369701465288538e-16
vn -0.8660253998985324 0 0.5000000067305869
vn -0.5000000067305869 0 0.8660253998985324
vn -2.4492937051703357e-16 0 1
vn 0 0 1
vn 0.5000000067305869 0 0.8660253998985324
vn 0.8660253998985324 0 0.5000000067305869
vn 1 0 6.123234262925839e-17
vn 0.8660253998985324 0 -0.5000000067305869
vn 0.5000000067305869 0 -0.8660253998985324
vn 1.2246468525851679e-16 0 -1
vn -0.5000000067305869 0 -0.8660253998985324
vn -0.8660253998985324 0 -0.5000000067305869
vn -1 0 -1.8369701465288538e-16
vn -0.8660253998985324 0 0.5000000067305869
vn -0.5000000067305869 0 0.8660253998985324
vn -2.4492937051703357e-16 0 1
vn 0 0 1
vn 0.5000000067305869 0 0.8660253998985324
vn 0.8660253998985324 0 0.5000000067305869
vn 1 0 6.123234262925839e-17
vn 0.8660253998985324 0 -0.5000000067305869
vn 0.5000000067305869 0 -0.8660253998985324
vn 1.2246468525851679e-16 0 -1
vn -0.5000000067305869 0 -0.8660253998985324
vn -0.8660253998985324 0 -0.5000000067305869
vn -1 0 -1.8369701465288538e-16
vn -0.8660253998985324 0 0.5000000067305869
vn -0.5000000067305869 0 0.8660253998985324
vn -2.4492937051703357e-16 0 1
vn 0 0 1
vn 0.5000000067305869 0 0.8660253998985324
vn 0.8660253998985324 0 0.5000000067305869
vn 1 0 6.123234262925839e-17
vn 0.8660253998985324 0 -0.5000000067305869
vn 0.5000000067305869 0 -0.8660253998985324
vn 1.2246468525851679e-16 0 -1
vn -0.5000000067305869 0 -0.8660253998985324
vn -0.8660253998985324 0 -0.5000000067305869
vn -1 0 -1.8369701465288538e-16
vn -0.8660253998985324 0 0.5000000067305869
vn -0.5000000067305869 0 0.8660253998985324
vn -2.4492937051703357e-16 0 1
vn 0 0 1
vn 0.5000000067305869 0 0.8660253998985324
vn 0.8660253998985324 0 0.5000000067305869
vn 1 0 6.123234262925839e-17
vn 0.8660253998985324 0 -0.5000000067305869
vn 0.5000000067305869 0 -0.8660253998985324
vn 1.2246468525851679e-16 0 -1
vn -0.5000000067305869 0 -0.8660253998985324
vn -0.8660253998985324 0 -0.5000000067305869
vn -1 0 -1.8369701465288538e-16
vn -0.8660253998985324 0 0.5000000067305869
vn -0.5000000067305869 0 0.8660253998985324
vn -2.4492937051703357e-16 0 1
vn 0 0 1
vn 0.5000000067305869 0 0.8660253998985324
vn 0.8660253998985324 0 0.5000000067305869
vn 1 0 6.123234262925839e-17
vn 0.8660253998985324 0 -0.5000000067305869
vn 0.5000000067305869 0 -0.8660253998985324
vn 1.2246468525851679e-16 0 -1
vn -0.5000000067305869 0 -0.8660253998985324
vn -0.8660253998985324 0 -0.5000000067305869
vn -1 0 -1.8369701465288538e-16
vn -0.8660253998985324 0 0.5000000067305869
vn -0.5000000067305869 0 0.8660253998985324
vn -2.4492937051703357e-16 0 1
vn 0 0 1
vn 0.5000000067305869 0 0.8660253998985324
vn 0.8660253998985324 0 0.5000000067305869
vn 1 0 6.123234262925839e-17
vn 0.8660253998985324 0 -0.5000000067305869
vn 0.5000000067305869 0 -0.8660253998985324
vn 1.2246468525851679e-16 0 -1
vn -0.5000000067305869 0 -0.8660253998985324
vn -0.8660253998985324 0 -0.5000000067305869
vn -1 0 -1.8369701465288538e-16
vn -0.8660253998985324 0 0.5000000067305869
vn -0.5000000067305869 0 0.8660253998985324
vn -2.4492937051703357e-16 0 1
vn 0 0 1
vn 0.5000000067305869 0 0.8660253998985324
vn 0.8660253998985324 0 0.5000000067305869
vn 1 0 6.123234262925839e-17
vn 0.8660253998985324 0 -0.5000000067305869
vn 0.5000000067305869 0 -0.8660253998985324
vn 1.2246468525851679e-16 0 -1
vn -0.5000000067305869 0 -0.8660253998985324
vn -0.8660253998985324 0 -0.5000000067305869
vn -1 0 -1.8369701465288538e-16
vn -0.8660253998985324 0 0.5000000067305869
vn -0.5000000067305869 0 0.8660253998985324
vn -2.4492937051703357e-16 0 1
vn 0 0 1
vn 0.5000000067305869 0 0.8660253998985324
vn 0.8660253998985324 0 0.5000000067305869
vn 1 0 6.123234262925839e-17
vn 0.8660253998985324 0 -0.5000000067305869
vn 0.5000000067305869 0 -0.8660253998985324
vn 1.2246468525851679e-16 0 -1
vn -0.5000000067305869 0 -0.8660253998985324
vn -0.8660253998985324 0 -0.5000000067305869
vn -1 0 -1.8369701465288538e-16
vn -0.8660253998985324 0 0.5000000067305869
vn -0.5000000067305869 0 0.8660253998985324
vn -2.4492937051703357e-16 0 1
vn 0 0 1
vn 0.5000000067305869 0 0.8660253998985324
vn 0.8660253998985324 0 0.5000000067305869
vn 1 0 6.123234262925839e-17
vn 0.8660253998985324 0 -0.5000000067305869
vn 0.5000000067305869 0 -0.8660253998985324
vn 1.2246468525851679e-16 0 -1
vn -0.5000000067305869 0 -0.8660253998985324
vn -0.8660253998985324 0 -0.5000000067305869
vn -1 0 -1.8369701465288538e-16
vn -0.8660253998985324 0 0.5000000067305869
vn -0.5000000067305869 0 0.8660253998985324
vn -2.4492937051703357e-16 0 1
f 1/1/1 14/14/14 2/2/2
f 14/14/14 15/15/15 2/2/2
f 2/2/2 15/15/15 3/3/3
f 15/15/15 16/16/16 3/3/3
f 3/3/3 16/16/16 4/4/4
f 16/16/16 17/17/17 4/4/4
f 4/4/4 17/17/17 5/5/5
f 17/17/17 18/18/18 5/5/5
f 5/5/5 18/18/18 6/6/6
f 18/18/18 19/19/19 6/6/6
f 6/6/6 19/19/19 7/7/7
f 19/19/19 20/20/20 7/7/7
f 7/7/7 20/20/20 8/8/8
f 20/20/20 21/21/21 8/8/8
f 8/8/8 21/21/21 9/9/9
f 21/21/21 22/22/22 9/9/9
f 9/9/9 22/22/22 10/10/10
f 22/22/22 23/23/23 10/10/10
f 10/10/10 23/23/23 11/11/11
f 23/23/23 24/24/24 11/11/11
f 11/11/11 24/24/24 12/12/12
f 24/24/24 25/25/25 12/12/12
f 12/12/12 25/25/25 13/13/13
f 25/25/25 26/26/26 13/13/13
f 14/14/14 27/27/27 15/15/15
f 27/27/27 28/28/28 15/15/15
f 15/15/15 28/28/28 16/16/16
f 28/28/28 29/29/29 16/16/16
f 16/16/16 29/29/29 17/17/17
f 29/29/29 30/30/30 17/17/17
f 17/17/17 30/30/30 18/18/18
f 30/30/30 31/31/31 18/18/18
f 18/18/18 31/31/31 19/19/19
f 31/31/31 32/32/32 19/19/19
f 19/19/19 32/32/32 20/20/20
f 32/32/32 33/33/33 20/20/20
f 20/20/20 33/33/33 21/21/21
f 33/33/33 34/34/34 21/21/21
f 21/21/21 34/34/34 22/22/22
f 34/34/34 35/35/35 22/22/22
f 22/22/22 35/35/35 23/23/23
f 35/35/35 36/36/36 23/23/23
f 23/23/23 36/36/36 24/24/24
f 36/36/36 37/37/37 24/24/24
f 24/24/24 37/37/37 25/25/25
f 37/37/37 38/38/38 25/25/25
f 25/25/25 38/38/38 26/26/26
f 38/38/38 39/39/39 26/26/26
f 27/27/27 40/40/40 28/28/28
f 40/40/40 41/41/41 28/28/28
f 28/28/28 41/41/41 29/29/29
f 41/41/41 42/42/42 29/29/29
f 29/29/29 42/42/42 30/30/30
f 42/42/42 43/43/43 30/30/30
f 30/30/30 43/43/43 31/31/31
f 43/43/43 44/44/44 31/31/31
f 31/31/31 44/44/44 32/32/32
f 44/44/44 45/45/45 32/32/32
f 32/32/32 45/45/45 33/33/33
f 45/45/45 46/46/46 33/33/33
f 33/33/33 46/46/46 34/34/34
f 46/46/46 47/47/47 34/34/34
f 34/34/34 47/47/47 35/35/35
f 47/47/47 48/48/48 35/35/35
f 35/35/35 48/48/48 36/36/36
f 48/48/48 49/49/49 36/36/36
f 36/36/36 49/49/49 37/37/37
f 49/49/49 50/50/50 37/37/37
f 37/37/37 50/50/50 38/38/38
f 50/50/50 51/51/51 38/38/38
f 38/38/38 51/51/51 39/39/39
f 51/51/51 52/52/52 39/39/39
f 40/40/40 53/53/53 41/41/41
f 53/53/53 54/54/54 41/41/41
f 41/41/41 54/54/54 42/42/42
f 54/54/54 55/55/55 42/42/42
f 42/42/42 55/55/55 43/43/43
f 55/55/55 56/56/56 43/43/43
f 43/43/43 56/56/56 44/44/44
f 56/56/56 57/57/57 44/44/44
f 44/44/44 57/57/57 45/45/45
f 57/57/57 58/58/58 45/45/45
f 45/45/45 58/58/58 46/46/46
f 58/58/58 59/59/59 46/46/46
f 46/46/46 59/59/59 47/47/47
f 59/59/59 60/60/60 47/47/47
f 47/47/47 60/60/60 48/48/48
f 60/60/60 61/61/61 48/48/48
f 48/48/48 61/61/61 49/49/49
f 61/61/61 62/62/62 49/49/49
f 49/49/49 62/62/62 50/50/50
f 62/62/62 63/63/63 50/50/50
f 50/50/50 63/63/63 51/51/51
f 63/63/63 64/64/64 51/51/51
f 51/51/51 64/64/64 52/52/52
f 64/64/64 65/65/65 52/52/52
f 53/53/53 66/66/66 54/54/54
f 66/66/66 67/67/67 54/54/54
f 54/54/54 67/67/67 55/55/55
f 67/67/67 68/68/68 55/55/55
f 55/55/55 68/68/68 56/56/56
f 68/68/68 69/69/69 56/56/56
f 56/56/56 69/69/69 57/57/57
f 69/69/69 70/70/70 57/57/57
f 57/57/57 70/70/70 58/58/58
f 70/70/70 71/71/71 58/58/58
f 58/58/58 71/71/71 59/59/59
f 71/71/71 72/72/72 59/59/59
f 59/59/59 72/72/72 60/60/60
f 72/72/72 73/73/73 60/60/60
f 60/60/60 73/73/73 61/61/61
f 73/73/73 74/74/74 61/61/61
f 61/61/61 74/74/74 62/62/62
f 74/74/74 75/75/75 62/62/62
f 62/62/62 75/75/75 63/63/63
f 75/75/75 76/76/76 63/63/63
f 63/63/63 76/76/76 64/64/64
f 76/76/76 77/77/77 64/64/64
f 64/64/64 77/77/77 65/65/65
f 77/77/77 78/78/78 65/65/65
f 66/66/66 79/79/79 67/67/67
f 79/79/79 80/80/80 67/67/67
f 67/67/67 80/80/80 68/68/68
f 80/80/80 81/81/81 68/68/68
f 68/68/68 81/81/81 69/69/69
f 81/81/81 82/82/82 69/69/69
f 69/69/69 82/82/82 70/70/70
f 82/82/82 83/83/83 70/70/70
f 70/70/70 83/83/83 71/71/71
f 83/83/83 84/84/84 71/71/71
f 71/71/71 84/84/84 72/72/72
f 84/84/84 85/85/85 72/72/72
f 72/72/72 85/85/85 73/73/73
f 85/85/85 86/86/86 73/73/73
f 73/73/73 86/86/86 74/74/74
f 86/86/86 87/87/87 74/74/74
f 74/74/74 87/87/87 75/75/75
f 87/87/87 88/88/88 75/75/75
f 75/75/75 88/88/88 76/76/76
f 88/88/88 89/89/89 76/76/76
f 76/76/76 89/89/89 77/77/77
f 89/89/89 90/90/90 77/77/77
f 77/77/77 90/90/90 78/78/78
f 90/90/90 91/91/91 78/78/78
f 79/79/79 92/92/92 80/80/80
f 92/92/92 93/93/93 80/80/80
f 80/80/80 93/93/93 81/81/81
f 93/93/93 94/94/94 81/81/81
f 81/81/81 94/94/94 82/82/82
f 94/94/94 95/95/95 82/82/82
f 82/82/82 95/95/95 83/83/83
f 95/95/95 96/96/96 83/83/83
f 83/83/83 96/96/96 84/84/84
f 96/96/96 97/97/97 84/84/84
f 84/84/84 97/97/97 85/85/85
f 97/97/97 98/98/98 85/85/85
f 85/85/85 98/98/98 86/86/86
f 98/98/98 99/99/99 86/86/86
f 86/86/86 99/99/99 87/87/87
f 99/99/99 100/100/100 87/87/87
f 87/87/87 100/100/100 88/88/88
f 100/100/100 101/101/101 88/88/88
f 88/88/88 101/101/101 89/89/89
f 101/101/101 102/102/102 89/89/89
f 89/89/89 102/102/102 90/90/90
f 102/102/102 103/103/103 90/90/90
f 90/90/90 103/103/103 91/91/91
f 103/103/103 104/104/104 91/91/91
f 92/92/92 105/105/105 93/93/93
f 105/105/105 106/106/106 93/93/93
f 93/93/93 106/106/106 94/94/94
f 106/106/106 107/107/107 94/94/94
f 94/94/94 107/107/107 95/95/95
f 107/107/107 108/108/108 95/95/95
f 95/95/95 108/108/108 96/96/96
f 108/108/108 109/109/109 96/96/96
f 96/96/96 109/109/109 97/97/97
f 109/109/109 110/110/110 97/97/97
f 97/97/97 110/110/110 98/98/98
f 110/110/110 111/111/111 98/98/98
f 98/98/98 111/111/111 99/99/99
f 111/111/111 112/112/112 99/99/99
f 99/99/99 112/112/112 100/100/100
f 112/112/112 113/113/113 100/100/100
f 100/100/100 113/113/113 101/101/101
f 113/113/113 114/114/114 101/101/101
f 101/101/101 114/114/114 102/102/102
f 114/114/114 115/115/115 102/102/102
f 102/102/102 115/115/115 103/103/103
f 115/115/115 116/116/116 103/103/103
f 103/103/103 116/116/116 104/104/104
f 116/116/116 117/117/117 104/104/104
f 105/105/105 118/118/118 106/106/106
f 118/118/118 119/119/119 106/106/106
f 106/106/106 119/119/119 107/107/107
f 119/119/119 120/120/120 107/107/107
f 107/107/107 120/120/120 108/108/108
f 120/120/120 121/121/121 108/108/108
f 108/108/108 121/121/121 109/109/109
f 121/121/121 122/122/122 109/109/109
f 109/109/109 122/122/122 110/110/110
f 122/122/122 123/123/123 110/110/110
f 110/110/110 123/123/123 111/111/111
f 123/123/123 124/124/124 111/111/111
f 111/111/111 124/124/124 112/112/112
f 124/124/124 125/125/125 112/112/112
f 112/112/112 125/125/125 113/113/113
f 125/125/125 126/126/126 113/113/113
f 113/113/113 126/126/126 114/114/114
f 126/126/126 127/127/127 114/114/114
f 114/114/114 127/127/127 115/115/115
f 127/127/127 128/128/128 115/115/115
f 115/115/115 128/128/128 116/116/116
f 128/128/128 129/129/129 116/116/116
f 116/116/116 129/129/129 117/117/117
f 129/129/129 130/130/130 117/117/117
f 118/118/118 131/131/131 119/119/119
f 131/131/131 132/132/132 119/119/119
f 119/119/119 132/132/132 120/120/120
f 132/132/132 133/133/133 120/120/120
f 120/120/120 133/133/133 121/121/121
f 133/133/133 134/134/134 121/121/121
f 121/121/121 134/134/134 122/122/122
f 134/134/134 135/135/135 122/122/122
f 122/122/122 135/135/135 123/123/123
f 135/135/135 136/136/136 123/123/123
f 123/123/123 136/136/136 124/124/124
f 136/136/136 137/137/137 124/124/124
f 124/124/124 137/137/137 125/125/125
f 137/137/137 138/138/138 125/125/125
f 125/125/125 138/138/138 126/126/126
f 138/138/138 139/139/139 126/126/126
f 126/126/126 139/139/139 127/127/127
f 139/139/139 140/140/140 127/127/127
f 127/127/127 140/140/140 128/128/128
f 140/140/140 141/141/141 128/128/128
f 128/128/128 141/141/141 129/129/129
f 141/141/141 142/142/142 129/129/129
f 129/129/129 142/142/142 130/130/130
f 142/142/142 143/143/143 130/130/130
