o lowpoly_cylinder
v 0 5 0.5
v 0.5 5 3.0616171314629196e-17
v 6.123234262925839e-17 5 -0.5
v -0.5 5 -9.184850732644269e-17
v -1.2246468525851679e-16 5 0.5
v 0 4 0.5
v 0.5 4 3.0616171314629196e-17
v 6.123234262925839e-17 4 -0.5
v -0.5 4 -9.184850732644269e-17
v -1.2246468525851679e-16 4 0.5
v 0 3 0.5
v 0.5 3 3.0616171314629196e-17
v 6.123234262925839e-17 3 -0.5
v -0.5 3 -9.184850732644269e-17
v -1.2246468525851679e-16 3 0.5
v 0 2 0.5
v 0.5 2 3.0616171314629196e-17
v 6.123234262925839e-17 2 -0.5
v -0.5 2 -9.184850732644269e-17
v -1.2246468525851679e-16 2 0.5
v 0 1 0.5
v 0.5 1 3.0616171314629196e-17
v 6.123234262925839e-17 1 -0.5
v -0.5 1 -9.184850732644269e-17
v -1.2246468525851679e-16 1 0.5
v 0 0 0.5
v 0.5 0 3.0616171314629196e-17
v 6.123234262925839e-17 0 -0.5
v -0.5 0 -9.184850732644269e-17
v -1.2246468525851679e-16 0 0.5
v 0 -1 0.5
v 0.5 -1 3.0616171314629196e-17
v 6.123234262925839e-17 -1 -0.5
v -0.5 -1 -9.184850732644269e-17
v -1.2246468525851679e-16 -1 0.5
v 0 -2 0.5
v 0.5 -2 3.0616171314629196e-17
v 6.123234262925839e-17 -2 -0.5
v -0.5 -2 -9.184850732644269e-17
v -1.2246468525851679e-16 -2 0.5
v 0 -3 0.5
v 0.5 -3 3.0616171314629196e-17
v 6.123234262925839e-17 -3 -0.5
v -0.5 -3 -9.184850732644269e-17
v -1.2246468525851679e-16 -3 0.5
v 0 -4 0.5
v 0.5 -4 3.0616171314629196e-17
v 6.123234262925839e-17 -4 -0.5
v -0.5 -4 -9.184850732644269e-17
v -1.2246468525851679e-16 -4 0.5
v 0 -5 0.5
v 0.5 -5 3.0616171314629196e-17
v 6.123234262925839e-17 -5 -0.5
v -0.5 -5 -9.184850732644269e-17
v -1.2246468525851679e-16 -5 0.5
v 0 5 0
v 0 5 0
v 0 5 0
v 0 5 0
v 0 5 0.5
v 0.5 5 3.0616171314629196e-17
v 6.123234262925839e-17 5 -0.5
v -0.5 5 -9.184850732644269e-17
v -1.2246468525851679e-16 5 0.5
v 0 -5 0
v 0 -5 0
v 0 -5 0
v 0 -5 0
v 0 -5 0.5
v 0.5 -5 3.0616171314629196e-17
v 6.123234262925839e-17 -5 -0.5
v -0.5 -5 -9.184850732644269e-17
v -1.2246468525851679e-16 -5 0.5

vt 0 1
vt 0.25 1
vt 0.5 1
vt 0.75 1
vt 1 1
vt 0 0.8999999761581421
vt 0.25 0.8999999761581421
vt 0.5 0.8999999761581421
vt 0.75 0.8999999761581421
vt 1 0.8999999761581421
vt 0 0.800000011920929
vt 0.25 0.800000011920929
vt 0.5 0.800000011920929
vt 0.75 0.800000011920929
vt 1 0.800000011920929
vt 0 0.699999988079071
vt 0.25 0.699999988079071
vt 0.5 0.699999988079071
vt 0.75 0.699999988079071
vt 1 0.699999988079071
vt 0 0.6000000238418579
vt 0.25 0.6000000238418579
vt 0.5 0.6000000238418579
vt 0.75 0.6000000238418579
vt 1 0.6000000238418579
vt 0 0.5
vt 0.25 0.5
vt 0.5 0.5
vt 0.75 0.5
vt 1 0.5
vt 0 0.4000000059604645
vt 0.25 0.4000000059604645
vt 0.5 0.4000000059604645
vt 0.75 0.4000000059604645
vt 1 0.4000000059604645
vt 0 0.30000001192092896
vt 0.25 0.30000001192092896
vt 0.5 0.30000001192092896
vt 0.75 0.30000001192092896
vt 1 0.30000001192092896
vt 0 0.20000000298023224
vt 0.25 0.20000000298023224
vt 0.5 0.20000000298023224
vt 0.75 0.20000000298023224
vt 1 0.20000000298023224
vt 0 0.10000000149011612
vt 0.25 0.10000000149011612
vt 0.5 0.10000000149011612
vt 0.75 0.10000000149011612
vt 1 0.10000000149011612
vt 0 0
vt 0.25 0
vt 0.5 0
vt 0.75 0
vt 1 0
vt 0.5 0.5
vt 0.5 0.5
vt 0.5 0.5
vt 0.5 0.5
vt 1 0.5
vt 0.5 1
vt 0 0.5
vt 0.5 0
vt 1 0.5
vt 0.5 0.5
vt 0.5 0.5
vt 0.5 0.5
vt 0.5 0.5
vt 1 0.5
vt 0.5 0
vt 0 0.5
vt 0.5 1
vt 1 0.5

vn 0 0 1
vn 1 0 6.123234262925839e-17
vn 1.2246468525851679e-16 0 -1
vn -1 0 -1.8369701465288538e-16
vn -2.4492937051703357e-16 0 1
vn 0 0 1
vn 1 0 6.123234262925839e-17
vn 1.2246468525851679e-16 0 -1
vn -1 0 -1.8369701465288538e-16
vn -2.4492937051703357e-16 0 1
vn 0 0 1
vn 1 0 6.123234262925839e-17
vn 1.2246468525851679e-16 0 -1
vn -1 0 -1.8369701465288538e-16
vn -2.4492937051703357e-16 0 1
vn 0 0 1
vn 1 0 6.123234262925839e-17
vn 1.2246468525851679e-16 0 -1
vn -1 0 -1.8369701465288538e-16
vn -2.4492937051703357e-16 0 1
vn 0 0 1
vn 1 0 6.123234262925839e-17
vn 1.2246468525851679e-16 0 -1
vn -1 0 -1.8369701465288538e-16
vn -2.4492937051703357e-16 0 1
vn 0 0 1
vn 1 0 6.123234262925839e-17
vn 1.2246468525851679e-16 0 -1
vn -1 0 -1.8369701465288538e-16
vn -2.4492937051703357e-16 0 1
vn 0 0 1
vn 1 0 6.123234262925839e-17
vn 1.2246468525851679e-16 0 -1
vn -1 0 -1.8369701465288538e-16
vn -2.4492937051703357e-16 0 1
vn 0 0 1
vn 1 0 6.123234262925839e-17
vn 1.2246468525851679e-16 0 -1
vn -1 0 -1.8369701465288538e-16
vn -2.4492937051703357e-16 0 1
vn 0 0 1
vn 1 0 6.123234262925839e-17
vn 1.2246468525851679e-16 0 -1
vn -1 0 -1.8369701465288538e-16
vn -2.4492937051703357e-16 0 1
vn 0 0 1
vn 1 0 6.123234262925839e-17
vn 1.2246468525851679e-16 0 -1
vn -1 0 -1.8369701465288538e-16
vn -2.4492937051703357e-16 0 1
vn 0 0 1
vn 1 0 6.123234262925839e-17
vn 1.2246468525851679e-16 0 -1
vn -1 0 -1.8369701465288538e-16
vn -2.4492937051703357e-16 0 1
vn 0 1 0
vn 0 1 0
vn 0 1 0
vn 0 1 0
vn 0 1 0
vn 0 1 0
vn 0 1 0
vn 0 1 0
vn 0 1 0
vn 0 -1 0
vn 0 -1 0
vn 0 -1 0
vn 0 -1 0
vn 0 -1 0
vn 0 -1 0
vn 0 -1 0
vn 0 -1 0
vn 0 -1 0

s 1
f 1/1/1 6/6/6 2/2/2
f 6/6/6 7/7/7 2/2/2
f 6/6/6 11/11/11 7/7/7
f 11/11/11 12/12/12 7/7/7
f 11/11/11 16/16/16 12/12/12
f 16/16/16 17/17/17 12/12/12
f 16/16/16 21/21/21 17/17/17
f 21/21/21 22/22/22 17/17/17
f 21/21/21 26/26/26 22/22/22
f 26/26/26 27/27/27 22/22/22
f 26/26/26 31/31/31 27/27/27
f 31/31/31 32/32/32 27/27/27
f 31/31/31 36/36/36 32/32/32
f 36/36/36 37/37/37 32/32/32
f 36/36/36 41/41/41 37/37/37
f 41/41/41 42/42/42 37/37/37
f 41/41/41 46/46/46 42/42/42
f 46/46/46 47/47/47 42/42/42
f 46/46/46 51/51/51 47/47/47
f 51/51/51 52/52/52 47/47/47
f 2/2/2 7/7/7 3/3/3
f 7/7/7 8/8/8 3/3/3
f 7/7/7 12/12/12 8/8/8
f 12/12/12 13/13/13 8/8/8
f 12/12/12 17/17/17 13/13/13
f 17/17/17 18/18/18 13/13/13
f 17/17/17 22/22/22 18/18/18
f 22/22/22 23/23/23 18/18/18
f 22/22/22 27/27/27 23/23/23
f 27/27/27 28/28/28 23/23/23
f 27/27/27 32/32/32 28/28/28
f 32/32/32 33/33/33 28/28/28
f 32/32/32 37/37/37 33/33/33
f 37/37/37 38/38/38 33/33/33
f 37/37/37 42/42/42 38/38/38
f 42/42/42 43/43/43 38/38/38
f 42/42/42 47/47/47 43/43/43
f 47/47/47 48/48/48 43/43/43
f 47/47/47 52/52/52 48/48/48
f 52/52/52 53/53/53 48/48/48
f 3/3/3 8/8/8 4/4/4
f 8/8/8 9/9/9 4/4/4
f 8/8/8 13/13/13 9/9/9
f 13/13/13 14/14/14 9/9/9
f 13/13/13 18/18/18 14/14/14
f 18/18/18 19/19/19 14/14/14
f 18/18/18 23/23/23 19/19/19
f 23/23/23 24/24/24 19/19/19
f 23/23/23 28/28/28 24/24/24
f 28/28/28 29/29/29 24/24/24
f 28/28/28 33/33/33 29/29/29
f 33/33/33 34/34/34 29/29/29
f 33/33/33 38/38/38 34/34/34
f 38/38/38 39/39/39 34/34/34
f 38/38/38 43/43/43 39/39/39
f 43/43/43 44/44/44 39/39/39
f 43/43/43 48/48/48 44/44/44
f 48/48/48 49/49/49 44/44/44
f 48/48/48 53/53/53 49/49/49
f 53/53/53 54/54/54 49/49/49
f 4/4/4 9/9/9 5/5/5
f 9/9/9 10/10/10 5/5/5
f 9/9/9 14/14/14 10/10/10
f 14/14/14 15/15/15 10/10/10
f 14/14/14 19/19/19 15/15/15
f 19/19/19 20/20/20 15/15/15
f 19/19/19 24/24/24 20/20/20
f 24/24/24 25/25/25 20/20/20
f 24/24/24 29/29/29 25/25/25
f 29/29/29 30/30/30 25/25/25
f 29/29/29 34/34/34 30/30/30
f 34/34/34 35/35/35 30/30/30
f 34/34/34 39/39/39 35/35/35
f 39/39/39 40/40/40 35/35/35
f 39/39/39 44/44/44 40/40/40
f 44/44/44 45/45/45 40/40/40
f 44/44/44 49/49/49 45/45/45
f 49/49/49 50/50/50 45/45/45
f 49/49/49 54/54/54 50/50/50
f 54/54/54 55/55/55 50/50/50
f 60/60/60 61/61/61 56/56/56
f 61/61/61 62/62/62 57/57/57
f 62/62/62 63/63/63 58/58/58
f 63/63/63 64/64/64 59/59/59
f 70/70/70 69/69/69 65/65/65
f 71/71/71 70/70/70 66/66/66
f 72/72/72 71/71/71 67/67/67
f 73/73/73 72/72/72 68/68/68
